<?xml version="1.0" encoding="UTF-8"?>
<svg version="1.1" xmlns="http://www.w3.org/2000/svg" width="800" height="800">
<path d="M0 0 C264 0 528 0 800 0 C800 264 800 528 800 800 C536 800 272 800 0 800 C0 536 0 272 0 0 Z " fill="#FE5F24" transform="translate(0,0)"/>
<path d="M0 0 C0.31453125 1.0621875 0.6290625 2.124375 0.953125 3.21875 C1.38504 4.64594738 1.81735312 6.07302432 2.25 7.5 C2.45496094 8.19609375 2.65992188 8.8921875 2.87109375 9.609375 C8.51868477 28.09240016 20.69888718 45.33179607 33 60 C34.31599825 61.66390584 35.6287431 63.33039244 36.9375 65 C40.16306136 69.01549475 43.47032224 72.95654765 46.8125 76.875 C47.26165771 77.40351562 47.71081543 77.93203125 48.17358398 78.4765625 C58.4466728 90.44313502 69.4652601 101.62350289 80.62573242 112.75610352 C83.19631311 115.32129463 85.76146593 117.89182731 88.32617188 120.46289062 C89.98145008 122.11750844 91.63703825 123.77181625 93.29296875 125.42578125 C94.42607735 126.56192619 94.42607735 126.56192619 95.58207703 127.72102356 C99.66665963 131.78783934 103.83353429 135.69587427 108.20820618 139.44975281 C111.2147128 142.05096082 114.10042739 144.78093276 117 147.5 C121.30101665 151.51382635 125.62432898 155.48339511 130.078125 159.328125 C132.41105074 161.35758073 134.70511245 163.427647 137 165.5 C139.98062721 168.18983431 142.97245233 170.86310364 146 173.5 C149.02754767 176.13689636 152.01937279 178.81016569 155 181.5 C160.3110608 186.28800179 165.66131351 191.02187651 171.1171875 195.64453125 C177.95146461 201.44542689 184.63084139 207.36730779 191.17260742 213.49682617 C194.05331347 216.1953789 196.94355083 218.86386767 199.9375 221.4375 C212.04682339 231.91481608 223.39996386 243.23816831 234.70068359 254.5703125 C237.02196315 256.89701445 239.34862663 259.21823828 241.67578125 261.5390625 C243.18000867 263.04394988 244.68392631 264.54914697 246.1875 266.0546875 C246.86989746 266.73506073 247.55229492 267.41543396 248.25537109 268.11642456 C252.15564245 272.03555847 255.87058177 276.06295085 259.48388672 280.24807739 C261.18265686 282.21106647 262.93327587 284.11568336 264.71875 286 C265.34136719 286.66 265.96398437 287.32 266.60546875 288 C267.23066406 288.66 267.85585938 289.32 268.5 290 C272.90772956 294.65310832 277.21846492 299.3632482 281.42333984 304.20068359 C288.98175348 312.82649786 298.57726619 322.7886331 309 328 C308.67 326.02 308.34 324.04 308 322 C307.34 322 306.68 322 306 322 C304.484375 319.76171875 304.484375 319.76171875 302.75 316.6875 C301.81607422 315.04394531 301.81607422 315.04394531 300.86328125 313.3671875 C299.19929862 310.36015809 297.56298363 307.34044576 295.9375 304.3125 C292.69578731 298.31790431 288.92159508 292.76038659 285.03125 287.171875 C284.3815625 286.20765625 283.731875 285.2434375 283.0625 284.25 C282.45535156 283.36828125 281.84820312 282.4865625 281.22265625 281.578125 C279.69427773 278.35534602 279.82939208 277.34459406 281 274 C282.17636795 271.36523035 283.47794205 268.80770091 284.8125 266.25 C287.74282428 260.57627644 290.44409507 254.85181639 293 249 C307.07612179 217.05657987 322.87628271 185.725529 357.0859375 171.97265625 C369.60523688 167.79396249 385.72604667 166.25994222 398 172 C399.05574219 172.48726562 400.11148437 172.97453125 401.19921875 173.4765625 C411.17790853 178.46021829 419.32876487 184.54865991 423.1875 195.3125 C424.08955906 199.40646035 424.14651074 202.82444394 424 207 C425.31677734 207.13535156 425.31677734 207.13535156 426.66015625 207.2734375 C434.85605576 209.05640511 442.72847177 216.60207684 448 223 C449.99845234 226.35224263 451 228.11175634 451 232 C450.00419922 231.69255859 450.00419922 231.69255859 448.98828125 231.37890625 C447.66376953 230.97478516 447.66376953 230.97478516 446.3125 230.5625 C445.44238281 230.29566406 444.57226562 230.02882813 443.67578125 229.75390625 C434.07689934 227.04940376 420.97659696 225.65491619 411.91796875 230.68359375 C402.33662312 237.25979228 397.7221913 244.65753627 395 256 C394.68612087 258.79788947 394.61912699 261.5608996 394.625 264.375 C394.62588623 265.15230469 394.62677246 265.92960937 394.62768555 266.73046875 C394.79529138 275.15670298 396.69974662 282.93244465 399 291 C399.27328125 291.9796875 399.5465625 292.959375 399.828125 293.96875 C400.9269721 297.75626552 402.1575893 301.49785824 403.40625 305.23828125 C403.66801025 306.02348145 403.92977051 306.80868164 404.19946289 307.61767578 C404.70791368 309.13077819 405.2209011 310.64236961 405.73999023 312.15185547 C417.19833287 345.50416166 421.89005388 388.336767 407.93261719 421.72705078 C406.78661427 424.5200579 405.90446512 427.37078605 405 430.25 C399.65101142 445.33943075 391.16476423 459.67332696 381 472 C379.58318643 473.7915505 378.1665154 475.58321373 376.75 477.375 C375.50056158 478.91712183 374.25063156 480.45884562 373 482 C372.56171875 482.56332031 372.1234375 483.12664062 371.671875 483.70703125 C368.87987303 487.23426041 365.74504623 490.08092847 362.328125 492.97265625 C360.67278942 494.41413136 359.06197678 495.9074355 357.484375 497.43359375 C349.40123303 505.2119245 340.55642662 511.43965588 331.17724609 517.57080078 C329.3601243 518.76360533 327.56228219 519.98571463 325.76953125 521.21484375 C312.74485129 529.8100779 297.63275961 535.70450161 283 541 C281.75271118 541.46744629 281.75271118 541.46744629 280.48022461 541.94433594 C273.80965742 544.42348334 267.08316687 546.57833767 260.25 548.5625 C259.20448975 548.86768555 258.15897949 549.17287109 257.08178711 549.48730469 C250.10547107 551.48776694 243.18530922 553.09459722 236.04296875 554.38671875 C233.36034654 554.9273756 230.93998855 555.62768371 228.375 556.5625 C225.00312261 557.77562932 221.80110512 558.3891071 218.25 558.875 C200.6233624 561.3518109 183.17998277 566.57846379 166.125 571.5625 C165.10841309 571.85930664 165.10841309 571.85930664 164.07128906 572.16210938 C155.77288634 574.61639539 147.62015455 577.45039584 139.5 580.4375 C138.70980469 580.72431641 137.91960937 581.01113281 137.10546875 581.30664062 C132.35493797 583.05213025 127.71818559 584.96069822 123.10742188 587.04711914 C118.97751381 588.91447678 114.79477186 590.66148606 110.625 592.4375 C109.42875 592.953125 108.2325 593.46875 107 594 C106.35023193 594.27602051 105.70046387 594.55204102 105.03100586 594.83642578 C98.04391826 597.8607713 91.3144104 601.36296267 84.5625 604.875 C83.39912109 605.47441406 82.23574219 606.07382812 81.03710938 606.69140625 C74.84999187 609.90160453 68.80625112 613.22398648 62.90600586 616.93798828 C61 618 61 618 59 618 C60.31879167 615.13005812 61.77095302 612.91254253 63.875 610.5625 C64.49632812 609.86769531 65.11765625 609.17289063 65.7578125 608.45703125 C69.44886382 604.41230777 73.15924374 600.38589136 76.8828125 596.37109375 C78.88878938 594.20655392 80.88409331 592.03317701 82.8671875 589.84765625 C88.01338978 584.18031956 93.28172342 578.68088097 98.73046875 573.30078125 C101.36005916 570.63498305 103.79032084 567.8404954 106.22265625 564.99609375 C108.87694956 562.01511819 111.72988637 559.24712517 114.59375 556.46875 C116.51204193 554.5006323 118.2939872 552.51119548 120.07836914 550.42602539 C124.24049587 545.65553124 128.67158005 541.18446107 133.15234375 536.71484375 C134.01130753 535.85492325 134.8702713 534.99500275 135.75526428 534.10902405 C137.56177015 532.30184139 139.36952462 530.49590608 141.1784668 528.69116211 C143.9293681 525.94561607 146.67489221 523.19477454 149.41992188 520.44335938 C151.18457532 518.6793668 152.94953897 516.9156845 154.71484375 515.15234375 C155.93239601 513.93175514 155.93239601 513.93175514 157.17454529 512.68650818 C161.41886536 508.45939262 165.73411103 504.38061104 170.28155518 500.48033142 C172.85619825 498.26243941 175.32591794 495.94117294 177.8125 493.625 C183.35302595 488.5078248 189.11865626 483.72212236 195 479 C196.73056388 477.58504047 198.45970496 476.16833921 200.1875 474.75 C204.08985633 471.55665548 207.99967666 468.3726663 211.9140625 465.1940918 C213.30642799 464.06328373 214.69835418 462.93193456 216.08984375 461.80004883 C219.05647906 459.38719014 222.02604665 456.97915592 225.01171875 454.58984375 C232.31819423 448.7126642 239.19415663 442.44232651 246 436 C247.22396484 434.85724609 247.22396484 434.85724609 248.47265625 433.69140625 C256.01708744 426.43970431 262.78328588 418.08717943 268 409 C263.81417916 412.01105369 259.83347305 415.10444313 256.0625 418.625 C245.22760575 428.37640482 232.74888888 436.04331093 220 443 C219.02675781 443.59296875 218.05351562 444.1859375 217.05078125 444.796875 C195.89649845 457.29587608 167.952779 462.07447998 144 456 C142.79601562 455.731875 141.59203125 455.46375 140.3515625 455.1875 C124.553849 451.58856097 110.3160915 445.50071815 96 438 C96 437.34 96 436.68 96 436 C95.32324219 435.92910156 94.64648438 435.85820312 93.94921875 435.78515625 C90.05639455 434.74878848 87.08732312 432.69598437 83.8125 430.4375 C83.14903564 429.98640869 82.48557129 429.53531738 81.80200195 429.07055664 C61.70001183 415.25881934 44.64308704 398.19885614 31 378 C30.57589844 377.38898438 30.15179688 376.77796875 29.71484375 376.1484375 C28.07328013 373.75963882 26.92416696 371.77250087 26 369 C27.16208984 369.39058594 27.16208984 369.39058594 28.34765625 369.7890625 C68.67704438 383.16030349 120.50587612 396.45760007 162.99755859 385.48413086 C165.9939491 384.75969263 168.93283468 384.94101605 172 385 C172 384.34 172 383.68 172 383 C170.73671875 383.02449219 169.4734375 383.04898437 168.171875 383.07421875 C131.61726095 383.03860436 91.20819408 372.6946015 57 360 C55.65228516 359.51853516 55.65228516 359.51853516 54.27734375 359.02734375 C22.42169435 347.06205105 -5.00147906 325.57715613 -19.25366211 294.22998047 C-19.8869928 292.80758991 -20.51612675 291.38332175 -21.140625 289.95703125 C-21.89741839 288.23360631 -22.68103352 286.52201236 -23.46875 284.8125 C-26.60533357 277.77431248 -28.48137605 270.65657851 -30.203125 263.17578125 C-30.67149271 260.15725689 -30.67149271 260.15725689 -32 259 C-33.08808374 253.3177849 -33.10452045 247.77185149 -33 242 C-31.6696875 243.1446875 -31.6696875 243.1446875 -30.3125 244.3125 C-29.66925781 244.86035156 -29.02601563 245.40820312 -28.36328125 245.97265625 C-26.62048735 247.46771416 -24.89057731 248.9778222 -23.16796875 250.49609375 C-17.41396017 255.52473093 -11.54534835 260.18933043 -5.1875 264.4375 C-4.2912793 265.03836426 -4.2912793 265.03836426 -3.37695312 265.65136719 C0.34010206 268.07954271 4.14538742 270.12251172 8.13598633 272.06420898 C10.66421655 273.33345672 13.03694327 274.81794834 15.4375 276.3125 C21.74669648 280.04979473 28.31444337 282.74340926 35.1171875 285.421875 C38.51333211 286.76604459 41.73619743 288.35905771 45 290 C46.73843588 290.67634414 48.48869939 291.32315413 50.25 291.9375 C53.74333991 293.17843174 57.19656713 294.4650131 60.625 295.875 C67.98138084 298.85286296 75.4966802 301.41984124 83 304 C83.66040283 304.22792236 84.32080566 304.45584473 85.0012207 304.69067383 C91.63615722 306.94324216 98.34515305 308.95250921 105.05688477 310.96166992 C107.0627327 311.56256971 109.06752462 312.16690327 111.07226562 312.77148438 C119.43518376 315.29261878 119.43518376 315.29261878 127.88647461 317.49194336 C130.76038676 318.18278443 133.62116186 318.92236806 136.484375 319.65625 C138.90622159 320.27094527 141.32809732 320.88552575 143.75 321.5 C144.94882812 321.80808594 146.14765625 322.11617188 147.3828125 322.43359375 C154.88154545 324.32860978 162.34831345 325.86719859 170 327 C163.54664396 323.61666324 157.05007773 320.80682069 150.2265625 318.25 C146.32043843 316.73673159 142.54100052 315.01176836 138.7421875 313.25 C133.88362559 311.03527092 128.93660863 309.03309493 124 307 C121.00005681 305.75164913 118.0013035 304.50054553 115.00390625 303.24609375 C112.99606206 302.41319089 110.98293575 301.59291251 108.96484375 300.78515625 C102.94090401 298.35226188 97.31482555 295.59326381 91.65625 292.40625 C88.33012145 290.64535842 84.91153621 289.33151455 81.3984375 287.99609375 C78.97353998 286.9890109 76.77279293 285.81184013 74.5 284.5 C71.49679701 282.77040666 68.55002703 281.36085861 65.3125 280.125 C41.01855497 270.65886617 16.04727531 255.86947585 -2.94140625 237.9375 C-4.75588942 236.22975114 -6.6168947 234.6779548 -8.5625 233.125 C-13.37680644 229.02434369 -17.15401528 223.98883071 -21 219 C-21.62132812 218.19433594 -22.24265625 217.38867188 -22.8828125 216.55859375 C-38.06718959 195.89286081 -43.2447663 173.33728364 -43.3125 148.1875 C-43.31805908 146.88893066 -43.32361816 145.59036133 -43.3293457 144.25244141 C-43.24317741 132.68526867 -42.05323851 121.87004873 -38 111 C-35.67782131 113.94051029 -33.90099509 116.95566714 -32.125 120.25 C-21.31364546 138.8482383 -4.97777254 154.9986005 12 168 C13.34412926 169.04899338 14.68784686 170.09851436 16.03125 171.1484375 C24.14166813 177.453308 32.3561737 183.44015193 41 189 C42.22484005 189.8111702 43.44874224 190.62375771 44.671875 191.4375 C62.40897496 203.16963782 80.96349039 213.58136148 99.64526367 223.72167969 C102.23683218 225.12856955 104.8255993 226.54053039 107.4140625 227.953125 C111.02623638 229.9239165 114.63947614 231.89272465 118.25390625 233.859375 C120.02345294 234.82288831 121.7929838 235.7864307 123.5625 236.75 C124.51358643 237.26731689 125.46467285 237.78463379 126.44458008 238.31762695 C130.89874888 240.74470432 135.34435393 243.1831328 139.7578125 245.68359375 C148.20672247 250.46498821 156.7198928 254.90535118 165.5456543 258.95776367 C170.18196017 261.09182429 174.60447533 263.40343841 179 266 C168.75052142 255.54774396 157.01031797 247.27407962 145 239 C143.70957858 238.10685295 142.41921204 237.21362659 141.12890625 236.3203125 C133.4434315 231.01165658 125.71846966 225.76049283 118 220.5 C103.93174335 210.91183466 89.89986261 201.28501518 76.01660156 191.43017578 C74.1043916 190.07403462 72.18922235 188.72217772 70.2734375 187.37109375 C62.36226148 181.77728909 54.60340842 176.00681987 47 170 C46.05205566 169.25145752 46.05205566 169.25145752 45.08496094 168.48779297 C36.22454154 161.46048916 27.6427376 154.22437146 19.47314453 146.40136719 C18.09071972 145.0862995 16.68476271 143.79609556 15.27734375 142.5078125 C-5.43059291 122.92829065 -23.26324945 94.34785366 -24.23828125 65.19140625 C-24.64522457 41.09091473 -19.95235351 19.73327899 -3.42578125 1.23828125 C-2 0 -2 0 0 0 Z " fill="#FCFAF7" transform="translate(197,39)"/>
<path d="M0 0 C-1.38114402 3.16972553 -2.93225894 5.02363246 -5.5 7.3125 C-21.17915127 22.76523754 -32.40136791 47.67906941 -37 69 C-37.66 69 -38.32 69 -39 69 C-39.17789063 70.74990234 -39.17789063 70.74990234 -39.359375 72.53515625 C-39.88014458 76.68037283 -40.94276643 80.46202071 -42.25 84.4375 C-43.66735938 88.77092315 -45.05004005 93.09510197 -46.23046875 97.5 C-48.40099526 105.55101622 -50.4671748 112.5359072 -56 119 C-56.50015625 119.6084375 -57.0003125 120.216875 -57.515625 120.84375 C-67.33057832 131.70690222 -84.59656639 138.93123839 -99.08422852 140.2890625 C-102.31210022 140.40113617 -105.52048905 140.41657246 -108.75 140.375 C-109.89380127 140.36484863 -111.03760254 140.35469727 -112.21606445 140.34423828 C-136.08743141 139.9076598 -155.02576379 131.85511876 -172 115 C-178.87067135 106.94517885 -183.66395594 98.55250594 -185 88 C-179.14203314 84.02735581 -173.20893063 80.24105241 -167.125 76.625 C-166.2784082 76.12025146 -165.43181641 75.61550293 -164.55957031 75.09545898 C-162.70404171 73.98989259 -160.8478966 72.8853604 -158.99121094 71.78173828 C-155.83598528 69.90230335 -152.68739263 68.01205428 -149.5390625 66.12109375 C-134.89937585 57.35300166 -120.12132143 48.91561521 -105 41 C-104.10039551 40.52755859 -103.20079102 40.05511719 -102.27392578 39.56835938 C-74.12995372 24.88276184 -44.30998804 12.47427835 -14 3 C-12.52466797 2.52433594 -12.52466797 2.52433594 -11.01953125 2.0390625 C-7.06671547 0.79560818 -4.19671154 0 0 0 Z " fill="#FDFBF9" transform="translate(404,613)"/>
<path d="M0 0 C4.41106832 -0.39750906 6.48809799 0.61117815 10.0625 3.1484375 C11.01801758 3.81931396 11.97353516 4.49019043 12.95800781 5.18139648 C13.96186523 5.90528564 14.96572266 6.6291748 16 7.375 C17.0322168 8.10726807 18.06443359 8.83953613 19.12792969 9.59399414 C26.55842903 14.89123239 33.87514852 20.29814244 41 26 C42.07413348 26.84516046 43.14835402 27.6902103 44.22265625 28.53515625 C50.02727327 33.16564088 50.02727327 33.16564088 52 35 C52 35.66 52 36.32 52 37 C49.02841979 36.36614043 46.61727465 35.39891384 43.9453125 33.9609375 C43.17340576 33.54924316 42.40149902 33.13754883 41.60620117 32.71337891 C40.78740479 32.27171387 39.9686084 31.83004883 39.125 31.375 C37.39517137 30.45192442 35.66469878 29.53005463 33.93359375 28.609375 C32.66298096 27.93358398 32.66298096 27.93358398 31.36669922 27.24414062 C28.33207363 25.64888046 25.26655011 24.13280151 22.1875 22.625 C12.29388944 17.73125938 2.66529918 12.32628617 -7 7 C-5 5 -5 5 -2.375 4.875 C-1.59125 4.91625 -0.8075 4.9575 0 5 C0 3.35 0 1.7 0 0 Z " fill="#FD672A" transform="translate(324,268)"/>
<path d="M0 0 C0.66 0.99 1.32 1.98 2 3 C3.051875 2.731875 4.10375 2.46375 5.1875 2.1875 C14.01332882 1.07841355 22.9872629 6.86514124 30.58984375 10.80859375 C33.89232203 12.44109922 37.29426024 13.75416091 40.7265625 15.0859375 C43.5816743 16.23386905 46.27826916 17.56751009 49 19 C44.93123518 20.61578114 41.21067905 19.39119642 37.12890625 18.41796875 C36.36956284 18.24372879 35.61021942 18.06948883 34.8278656 17.88996887 C33.2240104 17.52004805 31.62116363 17.14573128 30.01928711 16.76733398 C27.57693408 16.19090663 25.13168168 15.62849593 22.68554688 15.06835938 C21.12480888 14.70655261 19.56425548 14.34394845 18.00390625 13.98046875 C17.27667862 13.81266403 16.54945099 13.64485931 15.80018616 13.4719696 C12.04834939 12.58103857 8.55263353 11.48977674 5 10 C3.67864301 9.61441279 2.34898458 9.2558499 1.01171875 8.9296875 C0.30595703 8.75566406 -0.39980469 8.58164062 -1.12695312 8.40234375 C-1.84818359 8.22832031 -2.56941406 8.05429687 -3.3125 7.875 C-4.05306641 7.69324219 -4.79363281 7.51148438 -5.55664062 7.32421875 C-7.370304 6.8795787 -9.18504608 6.43934255 -11 6 C-11 5.67 -11 5.34 -11 5 C-8.36 5 -5.72 5 -3 5 C-3 4.01 -3 3.02 -3 2 C-2.01 2 -1.02 2 0 2 C0 1.34 0 0.68 0 0 Z " fill="#FE7030" transform="translate(320,347)"/>
<path d="M0 0 C5.7282577 -0.45826062 8.4998494 0.44174139 13 4 C15 6 15 6 15.4375 8.75 C14.97719196 12.16943113 14.12424467 14.29581576 11.7578125 16.8515625 C8.73941233 18.82358394 5.90762314 18.80825044 2.3828125 18.58203125 C-0.19585032 17.95216115 -1.31799181 17.35292868 -3.125 15.4375 C-5.26435006 11.51535822 -5.6638938 9.39829643 -5 5 C-3.625 3.0625 -3.625 3.0625 -2 2 C-1.34 2 -0.68 2 0 2 C0 1.34 0 0.68 0 0 Z " fill="#FE5E27" transform="translate(580,232)"/>
<path d="M0 0 C5.47858458 3.40336315 10.58957039 7.15333795 15.5625 11.25 C16.3673584 11.90427979 16.3673584 11.90427979 17.18847656 12.57177734 C18.49954678 13.66774345 19.75539405 14.82910168 21 16 C21 16.66 21 17.32 21 18 C17.92109286 17.35222089 15.43362771 16.30351066 12.6640625 14.8203125 C11.84679687 14.38589844 11.02953125 13.95148438 10.1875 13.50390625 C9.341875 13.04886719 8.49625 12.59382813 7.625 12.125 C5.95080537 11.23123764 4.27633239 10.33799645 2.6015625 9.4453125 C1.81297852 9.02411133 1.02439453 8.60291016 0.21191406 8.16894531 C-2.50419733 6.7335434 -5.24343742 5.35583371 -8 4 C-5.34601922 2.23067948 -3.9651626 1.69187127 -1 1 C-0.67 0.67 -0.34 0.34 0 0 Z " fill="#FD773F" transform="translate(355,287)"/>
<path d="M0 0 C0.66 0.33 1.32 0.66 2 1 C-2.46564335 7.50165096 -7.09253054 13.8246433 -12 20 C-14 17 -14 17 -13.9375 14.625 C-11.73266429 8.45146 -4.87556142 4.19806405 0 0 Z " fill="#FC5B26" transform="translate(464,447)"/>
<path d="M0 0 C2.0625 1.6875 2.0625 1.6875 4 4 C3.78588954 6.92617631 2.92855487 9.21433539 2 12 C-0.0625 13.1875 -0.0625 13.1875 -2 14 C-2.66 12.68 -3.32 11.36 -4 10 C-4.66 10 -5.32 10 -6 10 C-6 9.01 -6 8.02 -6 7 C-5.34 6.67 -4.68 6.34 -4 6 C-4 5.34 -4 4.68 -4 4 C-3.01 4 -2.02 4 -1 4 C-0.67 2.68 -0.34 1.36 0 0 Z " fill="#FF5B22" transform="translate(486,333)"/>
<path d="M0 0 C0 0.66 0 1.32 0 2 C-6.43028541 3.32388229 -12.4294834 4.24794402 -19 4 C-19 3.34 -19 2.68 -19 2 C-19.66 2 -20.32 2 -21 2 C-21 1.34 -21 0.68 -21 0 C-15.16825598 -2.91587201 -6.2429653 -0.80554391 0 0 Z " fill="#FE6E31" transform="translate(369,422)"/>
<path d="M0 0 C0.66 0.99 1.32 1.98 2 3 C2.99 3.33 3.98 3.66 5 4 C4.34 5.65 3.68 7.3 3 9 C-1.86896303 8.40380045 -6.32790951 7.43023178 -11 6 C-11 5.67 -11 5.34 -11 5 C-8.36 5 -5.72 5 -3 5 C-3 4.01 -3 3.02 -3 2 C-2.01 2 -1.02 2 0 2 C0 1.34 0 0.68 0 0 Z " fill="#FE7132" transform="translate(320,347)"/>
<path d="M0 0 C2.2386565 2.2386565 2.8996395 4.06570533 4 7 C4.33 7.66 4.66 8.32 5 9 C5.99 9 6.98 9 8 9 C7.67 9.99 7.34 10.98 7 12 C2.1725201 10.58707905 -1.7162359 8.57025846 -6 6 C-4 4 -2 2 0 0 Z " fill="#FE6B2F" transform="translate(214,308)"/>
<path d="M0 0 C0.99 0.33 1.98 0.66 3 1 C3 1.99 3 2.98 3 4 C3.99 4 4.98 4 6 4 C6 4.66 6 5.32 6 6 C7.88316159 7.10836423 7.88316159 7.10836423 10 8 C10.66 7.67 11.32 7.34 12 7 C12.66 9.31 13.32 11.62 14 14 C10.56592276 12.44343228 7.72673333 10.43153314 4.75 8.125 C3.85796875 7.44695312 2.9659375 6.76890625 2.046875 6.0703125 C0 4 0 4 0 0 Z " fill="#FB6B32" transform="translate(493,354)"/>
<path d="M0 0 C0.721875 0.185625 1.44375 0.37125 2.1875 0.5625 C5.12826973 1.01995307 7.14103058 0.73516357 10 0 C10 0.99 10 1.98 10 3 C10.61875 3.144375 11.2375 3.28875 11.875 3.4375 C14 4 14 4 16 5 C15.67 5.99 15.34 6.98 15 8 C9.52067211 6.45454854 4.88570819 3.84456788 0 1 C0 0.67 0 0.34 0 0 Z " fill="#FA7E47" transform="translate(332,282)"/>
<path d="M0 0 C3.7910119 1.44950455 7.3874638 3.15172566 11 5 C8.83704973 7.16295027 7.94755143 7.5534013 5 8 C4.01 7.67 3.02 7.34 2 7 C2 6.01 2 5.02 2 4 C1.34 4 0.68 4 0 4 C0 2.68 0 1.36 0 0 Z " fill="#FE692F" transform="translate(265,320)"/>
<path d="M0 0 C1.31611677 0.95336021 2.62778961 1.91285774 3.9375 2.875 C4.66839844 3.40867187 5.39929688 3.94234375 6.15234375 4.4921875 C8 6 8 6 9 8 C5.125 6.125 5.125 6.125 4 5 C3.67 5.99 3.34 6.98 3 8 C0.9375 8.6875 0.9375 8.6875 -1 9 C-1 8.34 -1 7.68 -1 7 C-0.34 7 0.32 7 1 7 C0.34 6.34 -0.32 5.68 -1 5 C-1.99 5 -2.98 5 -4 5 C-2.68 3.35 -1.36 1.7 0 0 Z " fill="#FC5420" transform="translate(257,451)"/>
<path d="M0 0 C0.33 0 0.66 0 1 0 C1.12375 0.78375 1.2475 1.5675 1.375 2.375 C1.79117993 5.14057822 1.79117993 5.14057822 4 7 C3.2575 8.3921875 3.2575 8.3921875 2.5 9.8125 C0.78710148 12.86527516 0.78710148 12.86527516 1 16 C0.34 16 -0.32 16 -1 16 C-1.33 17.32 -1.66 18.64 -2 20 C-1.03644647 6.3667426 -1.03644647 6.3667426 0 0 Z " fill="#FE5517" transform="translate(612,423)"/>
<path d="M0 0 C0.66 0 1.32 0 2 0 C1.67 1.32 1.34 2.64 1 4 C1.99 3.67 2.98 3.34 4 3 C3.34 5.31 2.68 7.62 2 10 C-0.31 8.02 -2.62 6.04 -5 4 C-2 2 -2 2 0 2 C0 1.34 0 0.68 0 0 Z " fill="#FE6F31" transform="translate(489,346)"/>
<path d="M0 0 C2.15377564 2.62198774 3.40072174 4.64404172 4 8 C3.34 8 2.68 8 2 8 C1.67 8.99 1.34 9.98 1 11 C0.01 11.33 -0.98 11.66 -2 12 C-2 7.60868663 -1.38278677 4.14836031 0 0 Z " fill="#FE672E" transform="translate(183,141)"/>
<path d="M0 0 C0.66 0.33 1.32 0.66 2 1 C0.02 3.97 -1.96 6.94 -4 10 C-5.65 9.67 -7.3 9.34 -9 9 C-6 6 -3 3 0 0 Z " fill="#F86B30" transform="translate(464,447)"/>
<path d="M0 0 C1.32 0.66 2.64 1.32 4 2 C3.50168276 5.68754757 2.89932357 7.60490662 0 10 C0 9.01 0 8.02 0 7 C-0.66 7 -1.32 7 -2 7 C-1.125 2.25 -1.125 2.25 0 0 Z " fill="#FC652E" transform="translate(375,657)"/>
<path d="M0 0 C1.65 1.65 3.3 3.3 5 5 C4.01 5.66 3.02 6.32 2 7 C1.63583953 9.43693311 1.63583953 9.43693311 1.8125 12.125 C1.83957031 13.03507812 1.86664063 13.94515625 1.89453125 14.8828125 C1.92933594 15.58148438 1.96414062 16.28015625 2 17 C1.67 17 1.34 17 1 17 C0.00749455 11.29309366 -0.10477512 5.78591511 0 0 Z " fill="#FBD7BD" transform="translate(164,281)"/>
<path d="M0 0 C0.33 0 0.66 0 1 0 C1.39049692 2.41507328 1.76277086 4.83066712 2.125 7.25 C2.23714844 7.93191406 2.34929688 8.61382812 2.46484375 9.31640625 C3.02600266 13.16969746 3.27684981 15.7280825 1 19 C-0.25433458 15.23699626 -0.10695422 11.72789091 -0.0625 7.8125 C-0.05798828 7.06291016 -0.05347656 6.31332031 -0.04882812 5.54101562 C-0.03706354 3.69397617 -0.01912865 1.84697787 0 0 Z " fill="#FD5816" transform="translate(591,297)"/>
<path d="M0 0 C0.33 0.99 0.66 1.98 1 3 C1.66 3 2.32 3 3 3 C3 2.34 3 1.68 3 1 C3.99 1.33 4.98 1.66 6 2 C3.69 4.31 1.38 6.62 -1 9 C-1.66 8.67 -2.32 8.34 -3 8 C-3 7.01 -3 6.02 -3 5 C-2.34 4.67 -1.68 4.34 -1 4 C-0.34786708 1.97536745 -0.34786708 1.97536745 0 0 Z " fill="#FC6430" transform="translate(332,567)"/>
<path d="M0 0 C0 0.66 0 1.32 0 2 C-0.66 2 -1.32 2 -2 2 C-2 2.66 -2 3.32 -2 4 C-7.2734375 7.22265625 -7.2734375 7.22265625 -9 8 C-9.66 7.67 -10.32 7.34 -11 7 C-9.9296491 5.82141137 -8.84316035 4.6574639 -7.75 3.5 C-7.14671875 2.8503125 -6.5434375 2.200625 -5.921875 1.53125 C-4 0 -4 0 0 0 Z " fill="#F76B35" transform="translate(567,527)"/>
<path d="M0 0 C0.99 0 1.98 0 3 0 C3 0.66 3 1.32 3 2 C4.32 1.67 5.64 1.34 7 1 C7 1.66 7 2.32 7 3 C6.34 3 5.68 3 5 3 C4.34 4.98 3.68 6.96 3 9 C0.87491756 5.81237635 0.4979837 3.73487777 0 0 Z M2 2 C3 4 3 4 3 4 Z " fill="#FD5319" transform="translate(605,358)"/>
<path d="M0 0 C-1.75 3.875 -1.75 3.875 -4 5 C-4 4.34 -4 3.68 -4 3 C-4.99 3.33 -5.98 3.66 -7 4 C-7.66 3.34 -8.32 2.68 -9 2 C-3.375 -1.125 -3.375 -1.125 0 0 Z " fill="#FB6533" transform="translate(292,640)"/>
<path d="M0 0 C1.0169313 2.65498232 1.13022151 3.69155375 0.00390625 6.359375 C-0.47175781 7.14828125 -0.94742188 7.9371875 -1.4375 8.75 C-1.91058594 9.54921875 -2.38367188 10.3484375 -2.87109375 11.171875 C-3.24363281 11.77515625 -3.61617187 12.3784375 -4 13 C-4.66 13 -5.32 13 -6 13 C-4.58707905 8.1725201 -2.57025846 4.2837641 0 0 Z " fill="#FB662C" transform="translate(600,473)"/>
<path d="M0 0 C0.66 0 1.32 0 2 0 C2 0.99 2 1.98 2 3 C2.66 3.33 3.32 3.66 4 4 C2.625 5.5 2.625 5.5 1 7 C0.34 7 -0.32 7 -1 7 C-1 6.34 -1 5.68 -1 5 C-1.99 4.67 -2.98 4.34 -4 4 C-3.34 4 -2.68 4 -2 4 C-1.34 2.68 -0.68 1.36 0 0 Z " fill="#FF6524" transform="translate(331,351)"/>
<path d="M0 0 C1.65 0 3.3 0 5 0 C6.25664978 2.90600261 7 4.79604584 7 8 C5.8274869 7.04882866 4.66212985 6.08882991 3.5 5.125 C2.8503125 4.59132812 2.200625 4.05765625 1.53125 3.5078125 C1.0259375 3.01023438 0.520625 2.51265625 0 2 C0 1.34 0 0.68 0 0 Z " fill="#FD682D" transform="translate(360,226)"/>
<path d="M0 0 C4.12751449 0.60698743 7.3321148 2.03810791 11 4 C6.99799622 5.60080151 3.95443764 4.29279692 0 3 C0 2.01 0 1.02 0 0 Z " fill="#FD6A20" transform="translate(358,362)"/>
<path d="M0 0 C0.66 0 1.32 0 2 0 C1.38722388 2.96175123 0.74627478 4.38058783 -1 7 C-2.32 6.67 -3.64 6.34 -5 6 C-3.38405168 3.95880212 -1.7143618 1.95927063 0 0 Z " fill="#F8642E" transform="translate(397,621)"/>
<path d="M0 0 C5.75 1.75 5.75 1.75 8 4 C5.69 4.33 3.38 4.66 1 5 C0.67 3.35 0.34 1.7 0 0 Z " fill="#FE5F1F" transform="translate(321,346)"/>
<path d="M0 0 C0.99 0.33 1.98 0.66 3 1 C1.625 2.5 1.625 2.5 0 4 C-0.66 4 -1.32 4 -2 4 C-2.33 5.32 -2.66 6.64 -3 8 C-4.32 8.33 -5.64 8.66 -7 9 C-2.85714286 2.57142857 -2.85714286 2.57142857 0 0 Z " fill="#FA6D36" transform="translate(603,273)"/>
<path d="M0 0 C2.31 0 4.62 0 7 0 C7 0.33 7 0.66 7 1 C5.02 1 3.04 1 1 1 C1 1.66 1 2.32 1 3 C0.34 3 -0.32 3 -1 3 C-1.28875 3.804375 -1.5775 4.60875 -1.875 5.4375 C-3 8 -3 8 -5 9 C-4.75 6.625 -4.75 6.625 -4 4 C-1.9375 2.6875 -1.9375 2.6875 0 2 C0 1.34 0 0.68 0 0 Z " fill="#FA824F" transform="translate(580,232)"/>
<path d="M0 0 C-0.99 0 -1.98 0 -3 0 C-3.66 1.65 -4.32 3.3 -5 5 C-7.475 4.01 -7.475 4.01 -10 3 C-10 2.34 -10 1.68 -10 1 C-3.71428571 -1.42857143 -3.71428571 -1.42857143 0 0 Z " fill="#FC743E" transform="translate(350,616)"/>
<path d="M0 0 C2.0625 0.4375 2.0625 0.4375 4 1 C2.63016497 4.16115776 2.0109362 4.9927092 -1 7 C-1.04254356 5.00045254 -1.04080783 2.99958364 -1 1 C-0.67 0.67 -0.34 0.34 0 0 Z " fill="#FC652E" transform="translate(365,536)"/>
<path d="M0 0 C2 2 2 2 2 5 C2.99 6.485 2.99 6.485 4 8 C3.01 8 2.02 8 1 8 C-1.1875 5.5 -1.1875 5.5 -3 3 C-2.01 2.01 -1.02 1.02 0 0 Z " fill="#FD6C2F" transform="translate(381,240)"/>
<path d="M0 0 C1.32 0.33 2.64 0.66 4 1 C4 2.32 4 3.64 4 5 C1.03 4.505 1.03 4.505 -2 4 C-1.34 2.68 -0.68 1.36 0 0 Z " fill="#FE803E" transform="translate(354,360)"/>
<path d="M0 0 C0.66 0 1.32 0 2 0 C2 0.66 2 1.32 2 2 C3.32 2.33 4.64 2.66 6 3 C5.67 3.99 5.34 4.98 5 6 C3.02 5.01 1.04 4.02 -1 3 C-0.67 2.01 -0.34 1.02 0 0 Z " fill="#FE7939" transform="translate(301,263)"/>
<path d="M0 0 C0.33 0.99 0.66 1.98 1 3 C0.34 3 -0.32 3 -1 3 C-0.67 3.99 -0.34 4.98 0 6 C-0.99 6 -1.98 6 -3 6 C-3.66 4.35 -4.32 2.7 -5 1 C-3.35 0.67 -1.7 0.34 0 0 Z " fill="#FE6B2C" transform="translate(169,157)"/>
<path d="M0 0 C-1 3 -1 3 -4.0625 4.6875 C-5.031875 5.120625 -6.00125 5.55375 -7 6 C-7.66 5.34 -8.32 4.68 -9 4 C-2.25 0 -2.25 0 0 0 Z " fill="#FB6F34" transform="translate(279,645)"/>
<path d="M0 0 C0.99 0 1.98 0 3 0 C2.34 1.65 1.68 3.3 1 5 C-1.31 4.67 -3.62 4.34 -6 4 C-5.38125 3.896875 -4.7625 3.79375 -4.125 3.6875 C-1.63473516 3.12474627 -1.63473516 3.12474627 0 0 Z " fill="#FE8045" transform="translate(322,351)"/>
<path d="M0 0 C0 2 0 2 -2.25 4.5 C-4.5264965 6.56954228 -6.19566446 7.85749293 -9 9 C-3.2 0 -3.2 0 0 0 Z " fill="#FBE8D2" transform="translate(197,39)"/>
<path d="M0 0 C0.66 0.33 1.32 0.66 2 1 C1.25 3.4375 1.25 3.4375 0 6 C-2.125 6.8125 -2.125 6.8125 -4 7 C-3.39816251 4.97954558 -2.72693904 2.97888961 -2 1 C-1.34 0.67 -0.68 0.34 0 0 Z " fill="#FE531C" transform="translate(301,634)"/>
<path d="M0 0 C-0.66 1.32 -1.32 2.64 -2 4 C-2.33 3.34 -2.66 2.68 -3 2 C-5.31 2.33 -7.62 2.66 -10 3 C-6.84916414 -0.15083586 -4.41812253 0 0 0 Z " fill="#FBC7A4" transform="translate(404,613)"/>
<path d="M0 0 C1.98 0.66 3.96 1.32 6 2 C5.67 3.65 5.34 5.3 5 7 C3.29115995 5.37660195 1.62553283 3.70680947 0 2 C0 1.34 0 0.68 0 0 Z " fill="#FBE5D1" transform="translate(223,408)"/>
<path d="M0 0 C2.475 0.99 2.475 0.99 5 2 C4.01 2.495 4.01 2.495 3 3 C3 3.66 3 4.32 3 5 C1.35 4.67 -0.3 4.34 -2 4 C-1.33333333 2.66666667 -0.66666667 1.33333333 0 0 Z " fill="#FF7433" transform="translate(341,354)"/>
<path d="M0 0 C1.8125 0.1875 1.8125 0.1875 4 1 C5.75 3.5625 5.75 3.5625 7 6 C4 6 4 6 1.8125 4.125 C0 2 0 2 0 0 Z " fill="#FC6D31" transform="translate(478,342)"/>
<path d="M0 0 C0.66 0 1.32 0 2 0 C4 3 4 3 3.625 5.1875 C3.41875 5.785625 3.2125 6.38375 3 7 C1.68 5.68 0.36 4.36 -1 3 C-0.67 2.01 -0.34 1.02 0 0 Z " fill="#FA581D" transform="translate(276,147)"/>
<path d="M0 0 C0.99 0 1.98 0 3 0 C2.125 4.75 2.125 4.75 1 7 C0.01 6.67 -0.98 6.34 -2 6 C-1.67 5.195625 -1.34 4.39125 -1 3.5625 C0.06059041 1.30318875 0.06059041 1.30318875 0 0 Z " fill="#FE591F" transform="translate(250,325)"/>
<path d="M0 0 C0.33 0 0.66 0 1 0 C1.33 1.98 1.66 3.96 2 6 C1.01 6 0.02 6 -1 6 C-2.6875 4 -2.6875 4 -4 2 C-2.68 2 -1.36 2 0 2 C0 1.34 0 0.68 0 0 Z " fill="#FD6C2E" transform="translate(357,219)"/>
<path d="M0 0 C2 1 4 2 6 3 C6 3.66 6 4.32 6 5 C4.35 5 2.7 5 1 5 C0.67 3.35 0.34 1.7 0 0 Z " fill="#FE511F" transform="translate(291,639)"/>
<path d="M0 0 C0.33 0.99 0.66 1.98 1 3 C-0.65 4.65 -2.3 6.3 -4 8 C-4.66 7.67 -5.32 7.34 -6 7 C-4.02 4.69 -2.04 2.38 0 0 Z " fill="#FDECDA" transform="translate(456,461)"/>
<path d="M0 0 C2 1 4 2 6 3 C3.64561267 4.42944945 2.51967567 5.08661261 -0.25 4.625 C-0.8275 4.41875 -1.405 4.2125 -2 4 C-1.34 2.68 -0.68 1.36 0 0 Z " fill="#FE7133" transform="translate(255,330)"/>
<path d="M0 0 C0.66 0.66 1.32 1.32 2 2 C2.99 2 3.98 2 5 2 C4.67 2.99 4.34 3.98 4 5 C2.02 4.34 0.04 3.68 -2 3 C-2 2.34 -2 1.68 -2 1 C-1.34 0.67 -0.68 0.34 0 0 Z " fill="#FC7B43" transform="translate(217,315)"/>
<path d="M0 0 C2.875 0.1875 2.875 0.1875 6 1 C7.375 3.5625 7.375 3.5625 8 6 C4.63408134 4.55746343 2.48952921 2.66735273 0 0 Z " fill="#FCE4C7" transform="translate(355,286)"/>
<path d="M0 0 C0.78375 0.04125 1.5675 0.0825 2.375 0.125 C1.715 1.445 1.055 2.765 0.375 4.125 C-2.1 3.135 -2.1 3.135 -4.625 2.125 C-2.625 0.125 -2.625 0.125 0 0 Z " fill="#FF7434" transform="translate(321.625,272.875)"/>
</svg>
